<?xml version="1.0" standalone="no"?>
<!DOCTYPE svg PUBLIC "-//W3C//DTD SVG 20010904//EN"
 "http://www.w3.org/TR/2001/REC-SVG-20010904/DTD/svg10.dtd">
<svg version="1.0" xmlns="http://www.w3.org/2000/svg"
 width="729.000000pt" height="826.000000pt" viewBox="0 0 729.000000 826.000000"
 preserveAspectRatio="xMidYMid meet">

<g transform="translate(0.000000,826.000000) scale(0.100000,-0.100000)"
fill="#000000" stroke="none">
<path d="M2251 8036 l-63 -64 1 -565 2 -565 -75 -67 -76 -68 0 -135 0 -135
132 -134 c73 -73 135 -133 138 -133 4 0 8 434 9 965 1 531 1 965 -1 965 -2 0
-32 -29 -67 -64z"/>
<path d="M5000 7138 c1 -533 5 -968 8 -968 4 0 65 57 135 128 l127 127 0 145
0 145 -70 60 -69 60 -1 570 0 571 -65 64 -66 65 1 -967z"/>
<path d="M1128 7143 c-2 -16 -5 -201 -7 -413 l-3 -385 136 -134 c74 -74 139
-137 144 -140 5 -3 132 -125 281 -270 l271 -263 0 -82 -1 -81 83 -77 83 -77 5
227 5 227 -80 80 c-44 44 -188 184 -320 310 -132 126 -288 277 -347 334 l-108
105 0 272 0 273 -62 60 c-34 34 -65 61 -69 61 -4 0 -9 -12 -11 -27z"/>
<path d="M6099 7113 l-59 -56 0 -277 0 -276 -227 -221 c-126 -121 -317 -308
-425 -414 l-198 -194 8 -227 7 -227 78 76 77 76 0 82 0 81 263 256 c144 140
331 322 415 404 l152 149 -7 413 c-3 237 -10 412 -15 412 -5 0 -36 -25 -69
-57z"/>
<path d="M2370 6312 l0 -207 195 -195 195 -195 0 -366 c0 -201 3 -453 7 -560
l6 -194 97 -62 c53 -35 102 -63 108 -63 18 0 133 193 122 204 -5 5 -47 33 -92
61 l-83 52 -3 423 c-2 416 -2 424 18 445 19 21 21 35 21 161 l1 139 -287 283
c-158 155 -291 282 -296 282 -5 0 -9 -91 -9 -208z"/>
<path d="M4647 6232 l-287 -287 0 -131 c0 -126 1 -131 25 -154 l25 -23 0 -423
0 -422 -86 -56 c-48 -31 -91 -56 -95 -56 -5 0 -9 -4 -9 -9 0 -16 114 -193 127
-198 7 -3 51 20 97 51 46 31 90 58 99 61 12 5 15 83 19 568 l4 562 195 199
194 198 -3 204 c-1 112 -6 204 -10 204 -4 0 -136 -129 -295 -288z"/>
<path d="M2167 5598 c-3 -18 -6 -162 -6 -320 l-2 -288 -149 -227 c-136 -207
-147 -228 -127 -231 13 -2 82 13 155 33 l132 36 311 -192 c172 -105 319 -193
328 -196 11 -3 33 24 75 94 33 53 56 98 50 100 -5 2 -54 33 -109 68 -55 36
-143 93 -195 127 -52 34 -139 90 -194 125 -54 36 -105 67 -112 70 -12 4 -14
67 -14 357 l0 352 -47 45 c-27 24 -58 53 -69 62 -21 18 -22 17 -27 -15z"/>
<path d="M5078 5570 l-68 -62 0 -352 0 -352 -32 -19 c-18 -10 -116 -73 -218
-140 -102 -66 -227 -148 -277 -180 -51 -33 -93 -63 -93 -67 0 -4 15 -31 34
-60 18 -29 45 -72 59 -95 l27 -42 122 78 c68 42 211 132 319 200 l197 121 130
-35 c122 -33 172 -42 172 -30 0 3 -65 106 -145 229 l-145 224 -1 204 c-1 111
-4 256 -8 322 l-6 118 -67 -62z"/>
<path d="M3413 5391 l-172 -176 -7 -255 -6 -255 102 -65 c57 -36 107 -66 111
-68 5 -2 9 52 9 120 l-1 123 -41 28 -41 29 5 90 6 90 116 115 116 114 0 145
c0 109 -3 144 -12 143 -7 -1 -90 -81 -185 -178z"/>
<path d="M3730 5422 l0 -147 115 -115 115 -115 0 -90 0 -90 -35 -24 -35 -24 0
-124 0 -125 29 19 c15 10 63 41 104 68 l77 50 0 249 0 248 -72 77 c-162 170
-282 291 -290 291 -4 0 -8 -66 -8 -148z"/>
<path d="M3610 5162 c-8 -2 -36 -25 -62 -50 l-48 -46 0 -1157 0 -1157 61 -56
c33 -31 63 -56 67 -56 6 0 5 2289 -1 2461 -2 53 -5 65 -17 61z"/>
<path d="M3707 4748 c-10 -584 -9 -2108 1 -2108 4 0 33 26 65 58 l57 57 0
1155 0 1154 -42 44 c-81 82 -74 113 -81 -360z"/>
<path d="M3036 4399 c-81 -122 -145 -227 -142 -234 2 -7 48 -39 100 -70 l96
-57 0 -55 0 -55 -109 -111 -108 -112 5 -335 5 -335 126 -130 c69 -71 161 -166
203 -210 l78 -80 1 -140 c0 -77 4 -176 8 -219 l7 -79 53 -48 c29 -27 57 -49
62 -49 5 0 9 162 9 404 l0 404 -49 59 -50 59 -2 513 -2 512 41 42 42 43 0 187
c0 169 -2 188 -17 194 -10 4 -59 33 -110 65 -51 32 -94 58 -96 58 -2 0 -70
-99 -151 -221z"/>
<path d="M4045 4559 c-49 -32 -98 -61 -107 -65 -16 -5 -18 -18 -17 -97 1 -51
4 -138 8 -194 l6 -102 39 -38 39 -38 -5 -513 -5 -513 -47 -48 -46 -47 0 -412
c0 -227 4 -412 8 -412 5 0 34 26 64 57 l55 58 2 205 c1 112 5 209 9 216 4 7
96 105 205 218 l197 206 0 337 0 336 -105 108 -105 108 0 53 0 53 98 61 c62
39 96 67 96 78 -2 18 -283 446 -293 445 -3 0 -46 -27 -96 -60z"/>
<path d="M2145 4083 c-93 -142 -185 -279 -203 -305 l-34 -48 -97 0 c-54 0
-179 -3 -278 -7 l-179 -6 -120 116 c-65 64 -125 117 -131 117 -7 0 -13 -1 -13
-2 1 -22 141 -362 151 -367 8 -3 200 -4 428 -1 l414 5 213 318 c118 175 214
321 214 325 0 10 -168 112 -183 112 -7 0 -89 -116 -182 -257z"/>
<path d="M4892 4284 c-59 -39 -81 -58 -75 -67 10 -17 159 -242 306 -462 l113
-170 405 -5 c222 -3 411 -4 420 -2 10 2 39 64 82 180 37 97 67 180 67 185 0
23 -37 -5 -141 -109 l-115 -115 -277 7 -277 7 -197 304 c-122 187 -203 303
-213 302 -8 0 -52 -25 -98 -55z"/>
<path d="M2444 3843 l-199 -298 3 -255 c1 -140 7 -619 12 -1065 l10 -810 149
-148 148 -148 7 -267 c10 -414 15 -482 34 -506 27 -35 92 -89 99 -82 3 3 1
265 -6 582 l-12 577 -54 61 -55 61 0 899 0 899 -22 21 c-77 73 -167 179 -161
189 4 7 83 126 175 265 92 140 168 257 168 262 0 7 -82 60 -93 60 -2 0 -94
-134 -203 -297z"/>
<path d="M4622 4111 l-43 -27 94 -145 c52 -79 130 -200 175 -269 l81 -125 -22
-27 c-12 -15 -52 -60 -88 -100 l-67 -73 -7 -905 -8 -905 -52 -57 -53 -57 -6
-508 c-3 -279 -8 -541 -10 -581 -5 -89 3 -91 71 -19 l50 52 2 115 c2 63 6 233
10 377 l6 263 148 148 147 148 12 1065 12 1065 -188 284 c-104 157 -191 291
-193 298 -7 18 -23 14 -71 -17z"/>
<path d="M620 3471 l-405 -398 -3 -514 -4 -514 40 -39 c22 -21 45 -35 51 -32
7 5 11 60 11 159 0 84 3 277 7 430 l6 277 51 0 50 0 362 361 362 361 -52 154
c-28 85 -55 154 -61 154 -5 0 -192 -180 -415 -399z"/>
<path d="M6251 3848 c-5 -13 -28 -83 -52 -156 l-43 -133 359 -359 359 -359 50
-3 51 -3 5 -427 c3 -234 8 -430 13 -434 4 -4 28 12 53 37 l46 44 -6 205 c-3
113 -6 340 -6 505 l-1 300 -399 403 c-219 221 -403 402 -409 402 -7 0 -15 -10
-20 -22z"/>
</g>
</svg>
